<?xml version="1.0" encoding="utf-8" standalone="no"?>
<!DOCTYPE svg PUBLIC "-//W3C//DTD SVG 1.1//EN" "http://www.w3.org/Graphics/SVG/1.1/DTD/svg11.dtd">
<svg version="1.1" id="Layer_1" xmlns="http://www.w3.org/2000/svg" xmlns:xlink="http://www.w3.org/1999/xlink" x="0px" y="0px"
	 width="50px" height="50px" viewBox="0 0 50 50" enable-background="new 0 0 50 50" xml:space="preserve">
<g>
	<rect x="0" fill="#FFFFFF" width="50" height="50"/>
	<rect x="0.656" y="0.656" width="48.688" height="48.688"/>
	<g>
		<path fill="#FFFFFF" d="M27.553,9.339c-0.627,0.741-1.598,1.311-2.586,1.229c-0.138-0.985,0.349-2.025,0.934-2.678
			c0.609-0.737,1.668-1.293,2.561-1.314C28.578,7.582,28.173,8.604,27.553,9.339 M32.062,19.345
			c-0.026-0.007-2.31-0.888-2.333-3.528c-0.021-2.201,1.793-3.261,1.872-3.308c-1.007-1.497-2.611-1.71-3.149-1.735
			c-1.379-0.143-2.654,0.795-3.356,0.795c-0.683,0-1.738-0.771-2.864-0.745c-1.483,0.014-2.847,0.859-3.613,2.175
			c-1.533,2.674-0.386,6.616,1.099,8.764c0.755,1.08,1.618,2.25,2.763,2.204c1.099-0.043,1.521-0.686,2.844-0.686
			c1.329,0,1.706,0.686,2.896,0.67c1.164-0.028,1.928-1.061,2.664-2.137C31.695,20.583,32.043,19.403,32.062,19.345"/>
		<path fill="#FFFFFF" d="M14.141,31.895c0-0.297-0.091-0.518-0.281-0.671c-0.178-0.157-0.435-0.237-0.769-0.237
			c-0.221,0-0.397,0.011-0.536,0.05l0.004,1.786c0.108,0.022,0.258,0.039,0.458,0.039c0.345,0,0.622-0.084,0.823-0.251
			C14.041,32.434,14.141,32.197,14.141,31.895 M14.925,31.848c0,0.457-0.132,0.821-0.398,1.098
			c-0.344,0.361-0.854,0.539-1.517,0.539c-0.194,0-0.347-0.02-0.45-0.041v1.929h-0.808l-0.001-4.896
			c0.377-0.075,0.812-0.104,1.297-0.104c0.634,0,1.103,0.138,1.42,0.397C14.774,31.045,14.925,31.403,14.925,31.848 M17.361,32.496
			c-0.075-0.022-0.161-0.028-0.247-0.028c-0.277,0-0.492,0.107-0.638,0.322c-0.134,0.182-0.199,0.42-0.199,0.699v1.884H15.47V32.92
			c0-0.41-0.004-0.791-0.028-1.123h0.699l0.025,0.676l0.023-0.002c0.088-0.229,0.214-0.417,0.398-0.56
			c0.175-0.126,0.366-0.192,0.575-0.192c0.074-0.004,0.138,0.008,0.198,0.016V32.496z M18.448,33.204
			c0.026-0.238,0.106-0.445,0.23-0.612c0.167-0.21,0.377-0.33,0.639-0.33c0.291,0,0.495,0.117,0.639,0.335
			c0.106,0.162,0.159,0.375,0.155,0.607H18.448z M20.553,32.281c-0.27-0.38-0.653-0.573-1.171-0.573
			c-0.521,0-0.949,0.193-1.246,0.576c-0.304,0.357-0.449,0.811-0.449,1.35c0,0.551,0.157,0.987,0.474,1.317
			c0.319,0.329,0.755,0.489,1.309,0.489c0.457,0,0.864-0.072,1.2-0.221l-0.124-0.557c-0.289,0.115-0.609,0.168-0.964,0.168
			c-0.324,0-0.583-0.084-0.786-0.246c-0.222-0.188-0.341-0.461-0.348-0.816h2.391c0.022-0.087,0.035-0.213,0.035-0.35
			C20.874,32.965,20.759,32.591,20.553,32.281 M26.583,35.373h-0.781v-2.005c0-0.67-0.218-0.989-0.673-0.986
			c-0.215,0-0.39,0.072-0.523,0.232c-0.129,0.164-0.188,0.363-0.188,0.575v2.184h-0.783v-2.116c0-0.269-0.047-0.479-0.165-0.641
			c-0.104-0.162-0.268-0.234-0.486-0.234c-0.218,0-0.393,0.078-0.53,0.254c-0.141,0.176-0.211,0.375-0.208,0.602l-0.002,2.136
			h-0.769v-2.55c0-0.318-0.013-0.66-0.032-1.025h0.679l0.042,0.531h0.021c0.249-0.402,0.6-0.609,1.088-0.609
			c0.481-0.004,0.812,0.223,0.982,0.67h0.014c0.115-0.184,0.251-0.338,0.419-0.455c0.204-0.137,0.452-0.219,0.73-0.215
			c0.319,0,0.573,0.111,0.782,0.332c0.253,0.26,0.383,0.666,0.383,1.205V35.373z M28.36,35.373h-0.799v-3.575h0.799V35.373z
			 M28.448,30.715c-0.003,0.137-0.051,0.254-0.142,0.344c-0.087,0.078-0.211,0.131-0.359,0.131c-0.128,0-0.24-0.053-0.334-0.131
			c-0.094-0.098-0.14-0.215-0.14-0.347s0.052-0.246,0.14-0.339c0.099-0.089,0.212-0.134,0.354-0.134c0.134,0,0.253,0.045,0.34,0.134
			C28.397,30.469,28.448,30.581,28.448,30.715 M32.317,35.373h-0.702l-0.048-0.548h-0.014c-0.252,0.425-0.626,0.629-1.133,0.629
			c-0.354,0-0.641-0.109-0.846-0.332c-0.252-0.266-0.378-0.678-0.378-1.225v-2.1h0.802v1.959c0,0.696,0.239,1.035,0.707,1.035
			c0.355,0,0.596-0.171,0.737-0.512c0.034-0.09,0.048-0.188,0.048-0.299v-2.184h0.799v2.541
			C32.288,34.682,32.297,35.024,32.317,35.373 M38.252,35.373H37.48l-0.004-2.005c0-0.668-0.222-0.986-0.672-0.989
			c-0.221,0.003-0.395,0.075-0.52,0.235c-0.135,0.164-0.2,0.363-0.2,0.575v2.184h-0.771v-2.116c0-0.269-0.056-0.479-0.164-0.641
			c-0.111-0.162-0.277-0.237-0.498-0.234c-0.213-0.003-0.385,0.078-0.527,0.254c-0.137,0.176-0.203,0.375-0.203,0.599v2.139h-0.776
			v-2.55c0-0.318-0.009-0.66-0.032-1.025h0.69l0.029,0.531h0.026c0.242-0.402,0.604-0.609,1.084-0.613
			c0.483,0.004,0.813,0.227,0.987,0.674h0.013c0.12-0.187,0.261-0.338,0.425-0.455c0.205-0.137,0.447-0.215,0.721-0.215
			c0.319,0,0.578,0.111,0.786,0.332c0.257,0.26,0.38,0.662,0.379,1.203V35.373z M15.969,39.553c0-0.565-0.337-0.847-1.008-0.856
			c-0.256,0-0.443,0.02-0.567,0.049v1.686h0.554c0.316,0,0.556-0.087,0.745-0.238C15.878,40.031,15.969,39.822,15.969,39.553
			 M16.942,43.109h-0.82c-0.081-0.145-0.187-0.542-0.323-1.18c-0.064-0.336-0.169-0.576-0.312-0.704
			c-0.134-0.135-0.341-0.207-0.604-0.207h-0.489v2.091H13.59v-4.9c0.366-0.064,0.791-0.098,1.294-0.098
			c0.672,0,1.164,0.134,1.475,0.395c0.277,0.234,0.414,0.561,0.411,0.979c0,0.301-0.083,0.572-0.272,0.805
			c-0.165,0.204-0.376,0.341-0.637,0.447v0.011c0.339,0.123,0.569,0.462,0.7,0.987c0.098,0.416,0.166,0.701,0.212,0.855
			C16.84,42.855,16.897,43.025,16.942,43.109 M19.666,40.937c0.005-0.234-0.05-0.439-0.157-0.609
			c-0.134-0.213-0.345-0.324-0.64-0.324c-0.25,0-0.471,0.111-0.629,0.318c-0.133,0.174-0.212,0.377-0.239,0.615H19.666z
			 M20.427,41.146c0,0.143-0.008,0.27-0.029,0.358L18,41.501c0.012,0.355,0.126,0.629,0.35,0.811
			c0.204,0.168,0.461,0.255,0.781,0.255c0.354,0,0.681-0.054,0.975-0.168l0.117,0.557c-0.337,0.146-0.738,0.224-1.201,0.22
			c-0.548,0.004-0.984-0.161-1.3-0.482c-0.323-0.333-0.485-0.771-0.485-1.326c0-0.545,0.147-0.98,0.448-1.35
			c0.309-0.386,0.725-0.572,1.252-0.572c0.513,0,0.902,0.187,1.174,0.572C20.315,40.328,20.427,40.699,20.427,41.146 M23.312,42.078
			c0,0.326-0.127,0.592-0.366,0.799c-0.249,0.199-0.594,0.303-1.019,0.299c-0.41,0.004-0.755-0.08-1.04-0.242l0.17-0.584
			c0.28,0.158,0.572,0.234,0.882,0.234c0.402,0,0.615-0.148,0.612-0.447c0.002-0.131-0.043-0.243-0.137-0.327
			c-0.087-0.087-0.243-0.162-0.475-0.249c-0.635-0.234-0.952-0.576-0.952-1.025c0-0.308,0.115-0.568,0.353-0.77
			c0.23-0.207,0.546-0.305,0.931-0.305c0.355,0,0.657,0.07,0.904,0.207l-0.169,0.568c-0.228-0.133-0.466-0.202-0.733-0.202
			c-0.161,0-0.295,0.042-0.386,0.123c-0.095,0.075-0.136,0.177-0.136,0.29c0,0.129,0.046,0.227,0.141,0.306
			c0.085,0.069,0.248,0.153,0.484,0.251C23.004,41.23,23.312,41.588,23.312,42.078 M26.271,40.937
			c0.001-0.232-0.048-0.439-0.152-0.609c-0.142-0.213-0.348-0.324-0.635-0.324c-0.262,0-0.471,0.111-0.64,0.315
			c-0.131,0.177-0.209,0.38-0.239,0.618H26.271z M27.034,41.146c0,0.143-0.015,0.27-0.03,0.355l-2.394,0.003
			c0.004,0.353,0.121,0.626,0.345,0.808c0.205,0.168,0.463,0.255,0.785,0.255c0.355,0,0.68-0.054,0.965-0.168l0.133,0.557
			c-0.344,0.146-0.742,0.22-1.208,0.224c-0.554-0.004-0.989-0.165-1.306-0.486c-0.317-0.333-0.477-0.771-0.477-1.326
			c0-0.545,0.148-0.98,0.446-1.35c0.307-0.386,0.727-0.572,1.25-0.572c0.512,0,0.907,0.187,1.173,0.572
			C26.922,40.328,27.034,40.699,27.034,41.146 M28.569,43.109h-0.803v-5.228h0.803V43.109z M30.214,43.109h-0.803v-5.228h0.803
			V43.109z M33.409,40.937c0.002-0.234-0.051-0.439-0.157-0.609c-0.14-0.216-0.347-0.324-0.635-0.324
			c-0.257,0-0.474,0.111-0.636,0.315c-0.135,0.177-0.214,0.38-0.236,0.618H33.409z M34.168,41.146
			c-0.002,0.143-0.007,0.266-0.031,0.355h-2.393c0.013,0.355,0.126,0.629,0.35,0.811c0.193,0.168,0.463,0.255,0.783,0.255
			c0.35,0,0.679-0.054,0.964-0.168l0.129,0.557c-0.34,0.146-0.743,0.22-1.202,0.22c-0.554,0-0.992-0.161-1.311-0.482
			c-0.315-0.333-0.465-0.771-0.467-1.326c0.002-0.545,0.142-0.98,0.434-1.35c0.311-0.386,0.729-0.572,1.257-0.572
			c0.515,0,0.9,0.187,1.171,0.572C34.058,40.325,34.167,40.699,34.168,41.146 M36.804,40.227c-0.075-0.011-0.159-0.021-0.253-0.021
			c-0.271,0-0.489,0.099-0.639,0.316c-0.13,0.182-0.191,0.422-0.191,0.705v1.881h-0.807v-2.455c-0.001-0.41-0.01-0.787-0.03-1.123
			h0.69l0.039,0.676l0.016,0.004c0.086-0.235,0.22-0.422,0.401-0.563c0.172-0.125,0.367-0.188,0.568-0.188
			c0.081,0,0.145,0.006,0.205,0.009V40.227z"/>
	</g>
</g>
</svg>
