<?xml version="1.0" encoding="utf-8"?>
<!-- Generator: Adobe Illustrator 16.0.0, SVG Export Plug-In . SVG Version: 6.00 Build 0)  -->
<!DOCTYPE svg PUBLIC "-//W3C//DTD SVG 1.1//EN" "http://www.w3.org/Graphics/SVG/1.1/DTD/svg11.dtd">
<svg version="1.1" id="Layer_1" xmlns="http://www.w3.org/2000/svg" xmlns:xlink="http://www.w3.org/1999/xlink" x="0px" y="0px"
	 width="113px" height="26px" viewBox="0 0 113 26" enable-background="new 0 0 113 26" xml:space="preserve">
<path fill="#FFFFFF" d="M8.865,6.794c-1.889,0-3.717,0.333-5.123,1.004C2.389,8.442,0,10.503,0,14.41l0.001,10.811h4.468
	l0.001-9.793c0-0.512,0.072-2.041,0.144-2.442c0.401-1.997,1.854-2.47,3.995-2.47c0.213,0,0.471,0.012,0.73,0.03l1.036-3.643
	C10.008,6.83,9.302,6.794,8.865,6.794z"/>
<path fill="#FFFFFF" d="M26.007,15.404c0-3.887-1.852-8.61-7.63-8.611c-5.667,0-8.646,4.615-8.646,9.518
	c0,5.416,3.38,8.975,9.121,8.975c2.541,0,4.647-0.508,6.175-1.125l-0.654-3.086c-1.342,0.506-2.832,0.795-4.903,0.795
	c-2.836,0-5.342-1.379-5.45-4.576h11.844C25.934,16.893,26.008,16.24,26.007,15.404z M14.019,14.168
	c0.183-1.814,1.345-4.323,4.106-4.322c2.979,0,3.703,2.688,3.668,4.322H14.019z"/>
<g>
	<path fill="#FF208A" d="M95.857,6.794c-1.888,0-3.716,0.333-5.122,1.004c-1.352,0.644-3.743,2.705-3.743,6.611l0.002,10.811h4.467
		l0.002-9.793c0-0.512,0.072-2.041,0.144-2.442c0.4-1.997,1.854-2.47,3.997-2.47c0.213,0,0.469,0.012,0.729,0.03l1.035-3.643
		C97.002,6.83,96.294,6.794,95.857,6.794z"/>
	<path fill="#FF208A" d="M113,15.404c0-3.887-1.851-8.61-7.63-8.611c-5.666,0-8.647,4.615-8.647,9.518
		c0,5.416,3.382,8.975,9.121,8.975c2.541,0,4.648-0.508,6.176-1.125l-0.653-3.086c-1.343,0.506-2.834,0.795-4.905,0.795
		c-2.836,0-5.343-1.379-5.449-4.576h11.843C112.926,16.893,113.002,16.24,113,15.404z M101.012,14.168
		c0.183-1.814,1.346-4.323,4.106-4.322c2.979,0,3.701,2.688,3.668,4.322H101.012z"/>
	<path fill="#FF208A" d="M48.395,10.645c-3.267-1.274-4.686-2.144-4.685-4.032c-0.001-1.417,1.232-2.943,4.068-2.943
		c2.289,0,3.998,0.689,4.869,1.159l1.089-3.594C52.464,0.582,50.502,0,47.849,0c-5.302,0-8.646,3.051-8.646,7.049
		c0,3.522,2.579,5.667,6.612,7.121c3.125,1.127,4.361,2.215,4.361,4.066c0,2-1.6,3.344-4.469,3.344
		c-2.288,0-4.469-0.725-5.923-1.561l-0.979,3.703c1.347,0.803,4.032,1.563,6.611,1.563c6.323,0,9.302-3.449,9.302-7.375
		C54.718,14.385,52.647,12.245,48.395,10.645z"/>
	<path fill="#FF208A" d="M64.003,21.615c-1.708,0-2.292-1.125-2.29-3.27l-0.002-7.81l3.099,0.001l0.954-3.342h-4.053v-5.02
		L57.354,4.34v14.517c0,2.324,0.439,3.922,1.381,4.938c0.835,0.91,2.217,1.49,3.851,1.49c1.416,0,2.579-0.217,3.234-0.473
		L65.744,21.4C65.237,21.545,64.837,21.615,64.003,21.615z"/>
	<path fill="#FF208A" d="M76.026,6.794c-5.341,0-9.159,3.561-9.157,9.372c-0.002,5.67,3.852,9.119,8.866,9.119
		c4.505,0,9.082-2.906,9.082-9.406C84.817,10.499,81.295,6.793,76.026,6.794z M75.88,22.051c-2.724,0-4.395-2.58-4.395-5.992
		c0-2.945,1.271-5.996,4.432-5.996c3.051,0,4.286,3.162,4.286,5.923C80.203,19.545,78.426,22.051,75.88,22.051z"/>
</g>
<g>
	<path fill="#FFFFFF" d="M32.228,13.01h0.037c1.672,0,2.762-1.199,2.762-2.834c-0.036-1.672-1.126-2.872-2.762-2.872
		c-1.599,0-2.762,1.199-2.762,2.872C29.503,11.811,30.629,13.01,32.228,13.01z"/>
	<path fill="#FFFFFF" d="M32.265,19.189c-1.599,0-2.762,1.199-2.762,2.871c0,1.598,1.126,2.836,2.725,2.836h0.037
		c1.672,0,2.762-1.238,2.762-2.836C34.991,20.352,33.9,19.189,32.265,19.189z"/>
</g>
</svg>
